<svg xmlns="http://www.w3.org/2000/svg" width="24" height="16" viewBox="0 0 24 16"><defs><style>.a{fill:#039;}.b{fill:#fc0;}</style></defs><g transform="translate(-1542.732 -339.458)"><rect class="a" width="24" height="16" rx="3" transform="translate(1542.732 339.458)"/><g transform="translate(1548.542 341.239)"><g transform="translate(5.343 0)"><g transform="translate(0.572)"><path class="b" d="M1640.262,354.2l-.275.847.423.138Z" transform="translate(-1639.987 -354.204)"/><g transform="translate(0.127)"><path class="b" d="M1641.186,354.2l.275.847-.423.138Z" transform="translate(-1641.038 -354.204)"/></g></g><g transform="translate(0.65 0.615)"><g transform="translate(0.062)"><path class="b" d="M1642.8,359.3h-.89v.445Z" transform="translate(-1641.813 -359.298)"/><path class="b" d="M1642.128,359.3l-.721.523-.262-.36Z" transform="translate(-1641.146 -359.298)"/></g><g transform="translate(0 0.112)"><path class="b" d="M1641.513,361.376l-.275-.847-.423.138Z" transform="translate(-1640.793 -360.492)"/><path class="b" d="M1641.354,361.109l-.72-.523.262-.36Z" transform="translate(-1640.634 -360.225)"/></g></g><g transform="translate(0 0.615)"><path class="b" d="M1635.254,359.3h.89v.445Z" transform="translate(-1635.254 -359.298)"/><path class="b" d="M1635.254,359.3l.72.523.262-.36Z" transform="translate(-1635.254 -359.298)"/><g transform="translate(0.323 0.112)"><path class="b" d="M1637.932,361.376l.275-.847.423.138Z" transform="translate(-1637.932 -360.492)"/><path class="b" d="M1637.932,361.109l.72-.523-.262-.36Z" transform="translate(-1637.932 -360.225)"/></g></g></g><g transform="translate(5.343 10.657)"><g transform="translate(0.572)"><path class="b" d="M1640.262,442.678l-.275.847.423.138Z" transform="translate(-1639.987 -442.678)"/><g transform="translate(0.127)"><path class="b" d="M1641.186,442.678l.275.847-.423.138Z" transform="translate(-1641.038 -442.678)"/></g></g><g transform="translate(0.65 0.615)"><g transform="translate(0.062)"><path class="b" d="M1642.8,447.773h-.89v.445Z" transform="translate(-1641.813 -447.773)"/><path class="b" d="M1642.128,447.773l-.721.523-.262-.36Z" transform="translate(-1641.146 -447.773)"/></g><g transform="translate(0 0.112)"><path class="b" d="M1641.513,449.851l-.275-.847-.423.138Z" transform="translate(-1640.793 -448.967)"/><path class="b" d="M1641.354,449.584l-.72-.523.262-.36Z" transform="translate(-1640.634 -448.7)"/></g></g><g transform="translate(0 0.615)"><path class="b" d="M1635.254,447.773h.89v.445Z" transform="translate(-1635.254 -447.773)"/><path class="b" d="M1635.254,447.773l.72.523.262-.36Z" transform="translate(-1635.254 -447.773)"/><g transform="translate(0.323 0.112)"><path class="b" d="M1637.932,449.851l.275-.847.423.138Z" transform="translate(-1637.932 -448.967)"/><path class="b" d="M1637.932,449.584l.72-.523-.262-.36Z" transform="translate(-1637.932 -448.7)"/></g></g></g><g transform="translate(0 0.716)"><g transform="translate(0 4.613)"><g transform="translate(0.572)"><path class="b" d="M1596.025,398.441l-.275.847.423.138Z" transform="translate(-1595.75 -398.441)"/><g transform="translate(0.127)"><path class="b" d="M1596.949,398.441l.275.847-.423.138Z" transform="translate(-1596.801 -398.441)"/></g></g><g transform="translate(0.65 0.615)"><g transform="translate(0.062)"><path class="b" d="M1598.557,403.536h-.89v.445Z" transform="translate(-1597.575 -403.536)"/><path class="b" d="M1597.891,403.536l-.72.523-.262-.36Z" transform="translate(-1596.909 -403.536)"/></g><g transform="translate(0 0.112)"><path class="b" d="M1597.277,405.614l-.275-.847-.423.138Z" transform="translate(-1596.556 -404.73)"/><path class="b" d="M1597.118,405.347l-.721-.523.262-.36Z" transform="translate(-1596.397 -404.463)"/></g></g><g transform="translate(0 0.615)"><path class="b" d="M1591.016,403.536h.891v.445Z" transform="translate(-1591.016 -403.536)"/><path class="b" d="M1591.016,403.536l.72.523.262-.36Z" transform="translate(-1591.016 -403.536)"/><g transform="translate(0.324 0.112)"><path class="b" d="M1593.695,405.614l.275-.847.423.138Z" transform="translate(-1593.695 -404.73)"/><path class="b" d="M1593.695,405.347l.72-.523-.262-.36Z" transform="translate(-1593.695 -404.463)"/></g></g></g><g transform="translate(2.671)"><g transform="translate(0.323 0.727)"><path class="b" d="M1615.813,367.036l.72-.523-.262-.36Z" transform="translate(-1615.813 -366.152)"/><g transform="translate(0 0.037)"><path class="b" d="M1615.813,367.3l.275-.847.423.138Z" transform="translate(-1615.813 -366.456)"/></g></g><g transform="translate(0 0.615)"><path class="b" d="M1613.135,365.225l.72.523.262-.36Z" transform="translate(-1613.135 -365.225)"/><path class="b" d="M1613.135,365.225h.89v.445Z" transform="translate(-1613.135 -365.225)"/></g><g transform="translate(0.572)"><path class="b" d="M1618.144,360.13l-.275.847.423.138Z" transform="translate(-1617.869 -360.13)"/><g transform="translate(0.127)"><path class="b" d="M1619.067,360.13l.275.847-.423.138Z" transform="translate(-1618.919 -360.13)"/></g></g><g transform="translate(0.65 0.615)"><g transform="translate(0 0.112)"><path class="b" d="M1619.236,367.036l-.72-.523.262-.36Z" transform="translate(-1618.516 -366.152)"/><g transform="translate(0.022 0.037)"><path class="b" d="M1619.395,367.3l-.275-.847-.423.138Z" transform="translate(-1618.696 -366.456)"/></g></g><g transform="translate(0.062)"><path class="b" d="M1620.009,365.225l-.72.523-.262-.36Z" transform="translate(-1619.027 -365.225)"/><g transform="translate(0.092)"><path class="b" d="M1620.677,365.225h-.891v.445Z" transform="translate(-1619.786 -365.225)"/></g></g></g></g><g transform="translate(0.716 1.95)"><g transform="translate(0.65 0.727)"><path class="b" d="M1603.2,383.495l-.275-.847-.424.138Z" transform="translate(-1602.482 -382.611)"/><path class="b" d="M1603.044,383.228l-.72-.523.262-.36Z" transform="translate(-1602.324 -382.344)"/></g><g transform="translate(0 0.615)"><g transform="translate(0.323 0.112)"><path class="b" d="M1599.621,383.228l.72-.523-.262-.36Z" transform="translate(-1599.621 -382.344)"/><g transform="translate(0 0.037)"><path class="b" d="M1599.621,383.495l.275-.847.423.138Z" transform="translate(-1599.621 -382.648)"/></g></g><path class="b" d="M1596.943,381.417l.721.523.262-.36Z" transform="translate(-1596.943 -381.417)"/><path class="b" d="M1596.943,381.417h.891v.445Z" transform="translate(-1596.943 -381.417)"/></g><g transform="translate(0.572)"><g transform="translate(0.14 0.615)"><path class="b" d="M1603.817,381.417l-.72.523-.262-.36Z" transform="translate(-1602.835 -381.417)"/><g transform="translate(0.092)"><path class="b" d="M1604.484,381.417h-.89v.445Z" transform="translate(-1603.594 -381.417)"/></g></g><path class="b" d="M1602.875,376.322l.275.847-.423.138Z" transform="translate(-1602.6 -376.322)"/><path class="b" d="M1601.952,376.322l-.275.847.423.138Z" transform="translate(-1601.677 -376.322)"/></g></g><g transform="translate(0.716 7.276)"><g transform="translate(0.712 0.615)"><path class="b" d="M1604.484,425.654h-.89v.445Z" transform="translate(-1603.502 -425.654)"/><path class="b" d="M1603.817,425.654l-.72.523-.262-.36Z" transform="translate(-1602.835 -425.654)"/></g><g transform="translate(0.323 0.727)"><g transform="translate(0.326)"><path class="b" d="M1603.2,427.732l-.275-.847-.424.138Z" transform="translate(-1602.482 -426.848)"/><path class="b" d="M1603.044,427.465l-.72-.523.262-.36Z" transform="translate(-1602.324 -426.581)"/></g><path class="b" d="M1599.621,427.465l.72-.523-.262-.36Z" transform="translate(-1599.621 -426.581)"/><g transform="translate(0 0.037)"><path class="b" d="M1599.621,427.732l.275-.847.423.138Z" transform="translate(-1599.621 -426.885)"/></g></g><g transform="translate(0.572)"><path class="b" d="M1602.875,420.56l.275.847-.423.138Z" transform="translate(-1602.6 -420.56)"/><path class="b" d="M1601.952,420.56l-.275.847.423.138Z" transform="translate(-1601.677 -420.56)"/></g><g transform="translate(0 0.615)"><path class="b" d="M1596.943,425.654h.891v.445Z" transform="translate(-1596.943 -425.654)"/><path class="b" d="M1596.943,425.654l.721.523.262-.36Z" transform="translate(-1596.943 -425.654)"/></g></g><g transform="translate(2.671 9.226)"><g transform="translate(0.712 0.615)"><path class="b" d="M1620.677,441.846h-.891v.445Z" transform="translate(-1619.694 -441.846)"/><path class="b" d="M1620.009,441.846l-.72.523-.262-.36Z" transform="translate(-1619.027 -441.846)"/></g><g transform="translate(0.323 0.727)"><g transform="translate(0.326)"><path class="b" d="M1619.395,443.924l-.275-.847-.423.138Z" transform="translate(-1618.674 -443.04)"/><path class="b" d="M1619.236,443.657l-.72-.523.262-.36Z" transform="translate(-1618.516 -442.773)"/></g><path class="b" d="M1615.813,443.657l.72-.523-.262-.36Z" transform="translate(-1615.813 -442.773)"/><g transform="translate(0 0.037)"><path class="b" d="M1615.813,443.924l.275-.847.423.138Z" transform="translate(-1615.813 -443.077)"/></g></g><g transform="translate(0.572)"><path class="b" d="M1619.067,436.752l.275.847-.423.138Z" transform="translate(-1618.792 -436.752)"/><path class="b" d="M1618.144,436.752l-.275.847.423.138Z" transform="translate(-1617.869 -436.752)"/></g><g transform="translate(0 0.615)"><path class="b" d="M1613.135,441.846h.89v.445Z" transform="translate(-1613.135 -441.846)"/><path class="b" d="M1613.135,441.846l.72.523.262-.36Z" transform="translate(-1613.135 -441.846)"/></g></g></g><g transform="translate(8.014 0.716)"><g transform="translate(2.671 4.613)"><g transform="translate(0.572)"><path class="b" d="M1685.423,398.441l.275.847-.423.138Z" transform="translate(-1685.148 -398.441)"/><path class="b" d="M1684.5,398.441l-.275.847.423.138Z" transform="translate(-1684.224 -398.441)"/></g><g transform="translate(0 0.615)"><path class="b" d="M1679.491,403.536h.891v.445Z" transform="translate(-1679.491 -403.536)"/><path class="b" d="M1679.491,403.536l.72.523.262-.36Z" transform="translate(-1679.491 -403.536)"/><g transform="translate(0.323 0.112)"><path class="b" d="M1682.169,405.614l.275-.847.423.138Z" transform="translate(-1682.169 -404.73)"/><path class="b" d="M1682.169,405.347l.72-.523-.262-.36Z" transform="translate(-1682.169 -404.463)"/></g></g><g transform="translate(0.65 0.615)"><g transform="translate(0.062)"><path class="b" d="M1687.032,403.536h-.891v.445Z" transform="translate(-1686.05 -403.536)"/><path class="b" d="M1686.365,403.536l-.721.523-.262-.36Z" transform="translate(-1685.383 -403.536)"/></g><g transform="translate(0 0.112)"><path class="b" d="M1685.75,405.614l-.275-.847-.423.138Z" transform="translate(-1685.03 -404.73)"/><path class="b" d="M1685.592,405.347l-.72-.523.262-.36Z" transform="translate(-1684.872 -404.463)"/></g></g></g><g transform="translate(0.65 0.727)"><path class="b" d="M1663.474,367.036l-.72-.523.262-.36Z" transform="translate(-1662.753 -366.152)"/><g transform="translate(0.022 0.037)"><path class="b" d="M1663.632,367.3l-.275-.847-.423.138Z" transform="translate(-1662.933 -366.456)"/></g></g><g transform="translate(0.572)"><g transform="translate(0.14 0.615)"><path class="b" d="M1664.247,365.225l-.72.523-.262-.36Z" transform="translate(-1663.265 -365.225)"/><g transform="translate(0.092)"><path class="b" d="M1664.913,365.225h-.89v.445Z" transform="translate(-1664.023 -365.225)"/></g></g><path class="b" d="M1663.3,360.13l.275.847-.424.138Z" transform="translate(-1663.029 -360.13)"/><path class="b" d="M1662.381,360.13l-.275.847.423.138Z" transform="translate(-1662.106 -360.13)"/></g><g transform="translate(0 0.615)"><g transform="translate(0.323 0.112)"><path class="b" d="M1660.05,367.036l.72-.523-.262-.36Z" transform="translate(-1660.05 -366.152)"/><g transform="translate(0 0.037)"><path class="b" d="M1660.05,367.3l.275-.847.424.138Z" transform="translate(-1660.05 -366.456)"/></g></g><path class="b" d="M1657.372,365.225l.72.523.262-.36Z" transform="translate(-1657.372 -365.225)"/><path class="b" d="M1657.372,365.225h.891v.445Z" transform="translate(-1657.372 -365.225)"/></g><g transform="translate(1.956 1.95)"><g transform="translate(0.323 0.727)"><path class="b" d="M1676.242,383.495l.275-.847.423.138Z" transform="translate(-1676.242 -382.611)"/><path class="b" d="M1676.242,383.228l.72-.523-.262-.36Z" transform="translate(-1676.242 -382.344)"/></g><g transform="translate(0.65 0.615)"><g transform="translate(0 0.112)"><path class="b" d="M1679.665,383.228l-.72-.523.262-.36Z" transform="translate(-1678.945 -382.344)"/><g transform="translate(0.022 0.037)"><path class="b" d="M1679.824,383.495l-.275-.847-.423.138Z" transform="translate(-1679.125 -382.648)"/></g></g><g transform="translate(0.062)"><path class="b" d="M1680.439,381.417l-.72.523-.262-.36Z" transform="translate(-1679.457 -381.417)"/><g transform="translate(0.092)"><path class="b" d="M1681.105,381.417h-.891v.445Z" transform="translate(-1680.215 -381.417)"/></g></g></g><g transform="translate(0 0.615)"><path class="b" d="M1673.564,381.417l.72.523.262-.36Z" transform="translate(-1673.564 -381.417)"/><path class="b" d="M1673.564,381.417h.89v.445Z" transform="translate(-1673.564 -381.417)"/></g><g transform="translate(0.572)"><path class="b" d="M1678.573,376.322l-.275.847.423.138Z" transform="translate(-1678.298 -376.322)"/><g transform="translate(0.127)"><path class="b" d="M1679.5,376.322l.275.847-.423.138Z" transform="translate(-1679.348 -376.322)"/></g></g></g><g transform="translate(1.956 7.276)"><g transform="translate(0 0.615)"><path class="b" d="M1673.564,425.654h.89v.445Z" transform="translate(-1673.564 -425.654)"/><path class="b" d="M1673.564,425.654l.72.523.262-.36Z" transform="translate(-1673.564 -425.654)"/></g><g transform="translate(0.323 0.727)"><path class="b" d="M1676.242,427.732l.275-.847.423.138Z" transform="translate(-1676.242 -426.848)"/><path class="b" d="M1676.242,427.465l.72-.523-.262-.36Z" transform="translate(-1676.242 -426.581)"/><g transform="translate(0.326)"><path class="b" d="M1679.665,427.465l-.72-.523.262-.36Z" transform="translate(-1678.945 -426.581)"/><g transform="translate(0.022 0.037)"><path class="b" d="M1679.824,427.732l-.275-.847-.423.138Z" transform="translate(-1679.125 -426.885)"/></g></g></g><g transform="translate(0.572)"><path class="b" d="M1678.573,420.56l-.275.847.423.138Z" transform="translate(-1678.298 -420.56)"/><g transform="translate(0.127)"><path class="b" d="M1679.5,420.56l.275.847-.423.138Z" transform="translate(-1679.348 -420.56)"/></g><g transform="translate(0.14 0.615)"><path class="b" d="M1681.105,425.654h-.891v.445Z" transform="translate(-1680.123 -425.654)"/><path class="b" d="M1680.439,425.654l-.72.523-.262-.36Z" transform="translate(-1679.457 -425.654)"/></g></g></g><g transform="translate(0 9.226)"><g transform="translate(0 0.615)"><path class="b" d="M1657.372,441.846h.891v.445Z" transform="translate(-1657.372 -441.846)"/><path class="b" d="M1657.372,441.846l.72.523.262-.36Z" transform="translate(-1657.372 -441.846)"/></g><g transform="translate(0.323 0.727)"><path class="b" d="M1660.05,443.924l.275-.847.424.138Z" transform="translate(-1660.05 -443.04)"/><path class="b" d="M1660.05,443.657l.72-.523-.262-.36Z" transform="translate(-1660.05 -442.773)"/><g transform="translate(0.326)"><path class="b" d="M1663.474,443.657l-.72-.523.262-.36Z" transform="translate(-1662.753 -442.773)"/><g transform="translate(0.022 0.037)"><path class="b" d="M1663.632,443.924l-.275-.847-.423.138Z" transform="translate(-1662.933 -443.077)"/></g></g></g><g transform="translate(0.572)"><path class="b" d="M1662.381,436.752l-.275.847.423.138Z" transform="translate(-1662.106 -436.752)"/><g transform="translate(0.127)"><path class="b" d="M1663.3,436.752l.275.847-.424.138Z" transform="translate(-1663.156 -436.752)"/></g><g transform="translate(0.14 0.615)"><path class="b" d="M1664.913,441.846h-.89v.445Z" transform="translate(-1663.931 -441.846)"/><path class="b" d="M1664.247,441.846l-.72.523-.262-.36Z" transform="translate(-1663.265 -441.846)"/></g></g></g></g></g></g></svg>