<svg xmlns="http://www.w3.org/2000/svg" width="24" height="16.08" viewBox="0 0 24 16.08"><defs><style>.a{fill:#273476;}.b{fill:#fff;}.c{fill:#ed2f31;}</style></defs><g transform="translate(-2280 -1542)"><g transform="translate(2294.087 1553.29)"><g transform="translate(0 0)"><path class="a" d="M2396.709,1640.544h6.977l-6.977-4.79Z" transform="translate(-2396.709 -1635.754)"/></g></g><g transform="translate(2280 1552.723)"><g transform="translate(0 0)"><path class="a" d="M2280,1630.988v3.334a2.006,2.006,0,0,0,.036.372l5.33-3.618Z" transform="translate(-2280 -1630.988)"/></g></g><g transform="translate(2280 1543.648)"><g transform="translate(0 0)"><path class="a" d="M2280.036,1555.848a2.021,2.021,0,0,0-.036.375v3.168l5.324.087Z" transform="translate(-2280 -1555.848)"/></g></g><g transform="translate(2294.087 1542)"><g transform="translate(0 0)"><path class="a" d="M2403.915,1542h-7.206v4.892Z" transform="translate(-2396.709 -1542)"/></g></g><g transform="translate(2298.676 1543.648)"><g transform="translate(0 0)"><path class="a" d="M2440.586,1559.389v-3.168a2.024,2.024,0,0,0-.036-.375l-5.288,3.63Z" transform="translate(-2435.262 -1555.846)"/></g></g><g transform="translate(2298.635 1552.723)"><g transform="translate(0 0)"><path class="a" d="M2440.246,1634.694a2.031,2.031,0,0,0,.036-.372v-3.334l-5.365.088Z" transform="translate(-2434.916 -1630.988)"/></g></g><g transform="translate(2282.706 1542)"><g transform="translate(0 0)"><path class="a" d="M2309.947,1542h-7.206l7.206,4.892Z" transform="translate(-2302.74 -1542)"/></g></g><g transform="translate(2282.935 1553.29)"><g transform="translate(0 0)"><path class="a" d="M2304.662,1640.544h6.978v-4.79Z" transform="translate(-2304.662 -1635.754)"/></g></g><g transform="translate(2280 1542)"><g transform="translate(0 0)"><path class="b" d="M2289.912,1546.892l-7.206-4.892h-.683a2.011,2.011,0,0,0-1.194.392l7.094,4.96h-1.779l-5.949-4.194a1.985,1.985,0,0,0-.16.49l5.288,3.63-5.324-.087v1.08l6.923.1,3.785.057V1542h-.8Z" transform="translate(-2280 -1542)"/></g><g transform="translate(13.292 9.643)"><path class="b" d="M2390.025,1622.077v6.275h.8v-4.79l6.977,4.79h.912a2.015,2.015,0,0,0,1.288-.462l-7.188-4.733h1.778l6,3.917a2.016,2.016,0,0,0,.108-.373l-5.33-3.618,5.365-.088v-1.08l-6.931.1Z" transform="translate(-2390.025 -1621.916)"/></g><g transform="translate(0 9.643)"><path class="b" d="M2280,1621.916V1623l5.365.088-5.33,3.618a2.019,2.019,0,0,0,.7,1.189l7.188-4.733h1.779l-7.654,5.2h.886l6.977-4.79v4.79h.8v-6.275l-3.777-.057Z" transform="translate(-2280 -1621.916)"/></g><g transform="translate(13.292 0)"><path class="b" d="M2395.408,1547.278l5.288-3.63a2.022,2.022,0,0,0-.793-1.255l-7.094,4.96h-1.779l7.656-5.353h-.66l-7.206,4.892V1542h-.8v6.433l3.785-.057,6.923-.1v-1.08Z" transform="translate(-2390.025 -1542)"/></g></g><g transform="translate(2280 1542)"><g transform="translate(0 0)"><path class="c" d="M2297.019,1548.429l-3.816.057V1542H2290.8v6.486l-3.816-.057-6.981-.105v3.267l6.988.105,3.809.057v6.327h2.406v-6.327l3.808-.057,6.989-.105v-3.267Z" transform="translate(-2280 -1542)"/></g></g><g transform="translate(2280.196 1542.392)"><g transform="translate(0 0)"><path class="c" d="M2287.6,1550.257h1.778l-7.094-4.96a2.026,2.026,0,0,0-.633.766Z" transform="translate(-2281.649 -1545.297)"/></g></g><g transform="translate(2294.297 1542)"><g transform="translate(0 0)"><path class="c" d="M2398.471,1547.353h1.779l7.094-4.96a2.011,2.011,0,0,0-1.194-.392h-.023Z" transform="translate(-2398.471 -1542)"/></g></g><g transform="translate(2296.076 1552.885)"><g transform="translate(0 0)"><path class="c" d="M2413.42,1632.348l7.188,4.733a2.028,2.028,0,0,0,.592-.816l-6-3.917Z" transform="translate(-2413.42 -1632.348)"/></g></g><g transform="translate(2280.736 1552.885)"><g transform="translate(0 0)"><path class="c" d="M2293.372,1632.348l-7.188,4.733a2.013,2.013,0,0,0,1.287.462h.026l7.653-5.2Z" transform="translate(-2286.184 -1632.348)"/></g></g></g></svg>