<svg xmlns="http://www.w3.org/2000/svg" width="24" height="16.08" viewBox="0 0 24 16.08"><defs><style>.a{fill:#fff;}.b{fill:#bf2033;}.c{fill:#213065;}</style></defs><g transform="translate(-120 -1716)"><g transform="translate(120 1717.236)"><g transform="translate(0 7.418)"><path class="a" d="M120,1788.162v1.245h24v-1.245H120Z" transform="translate(-120 -1788.162)"/></g><g transform="translate(12.052 4.945)"><rect class="a" width="11.948" height="1.245"/></g><g transform="translate(0 9.891)"><rect class="a" width="24" height="1.245"/></g><g transform="translate(0 12.363)"><path class="a" d="M120,1829.866a2.053,2.053,0,0,0,.168.815h23.664a2.051,2.051,0,0,0,.168-.815v-.43H120Z" transform="translate(-120 -1829.436)"/></g><g transform="translate(12.052 0)"><path class="a" d="M232.73,1726.248H220.951v1.245H232.9v-.43A2.041,2.041,0,0,0,232.73,1726.248Z" transform="translate(-220.951 -1726.248)"/></g><g transform="translate(12.052 2.473)"><rect class="a" width="11.948" height="1.245"/></g></g><g transform="translate(120 1716)"><g transform="translate(12.051 0)"><path class="b" d="M230.849,1716h-9.9v1.236H232.73A2.051,2.051,0,0,0,230.849,1716Z" transform="translate(-220.951 -1716)"/></g><g transform="translate(12.052 2.467)"><rect class="b" width="11.948" height="1.245"/></g><g transform="translate(12.052 4.942)"><rect class="b" width="11.948" height="1.244"/></g><g transform="translate(12.052 7.418)"><rect class="b" width="11.948" height="1.245"/></g><g transform="translate(0 9.893)"><rect class="b" width="24" height="1.245"/></g><g transform="translate(0 12.369)"><rect class="b" width="24" height="1.245"/></g><g transform="translate(0.169 14.844)"><path class="b" d="M123.273,1840.989h19.918a2.04,2.04,0,0,0,1.872-1.236H121.4A2.04,2.04,0,0,0,123.273,1840.989Z" transform="translate(-121.401 -1839.753)"/></g></g><g transform="translate(120 1716)"><g transform="translate(0 0)"><path class="c" d="M132.178,1723.46V1716H122.051a2.043,2.043,0,0,0-1.539.7h.308l.112-.344.112.344h.362l-.293.213.112.344-.293-.213-.293.213.112-.344-.261-.189a2.041,2.041,0,0,0-.49,1.328v6.654h12.178Zm-.745-.953-.293-.213-.293.213.112-.344-.293-.213h.362l.112-.344.112.344h.362l-.293.213Zm-9.428-.078.112.345h.362l-.293.213.112.344-.293-.213-.293.213.112-.344-.293-.213h.362Zm.8-.266-.293-.213h.362l.112-.344.112.344h.362l-.293.213.112.344-.293-.213-.293.213Zm-.307-3.716h.362l.112-.345.112.345h.362l-.293.213.112.344-.293-.213-.293.213.112-.344Zm2.039,0h.362l.112-.345.112.345h.362l-.293.213.112.345-.293-.213-.293.213.112-.344Zm2.039,0h.362l.112-.345.112.345h.362l-.293.213.112.344-.293-.213-.293.213.112-.344Zm2.039,0h.362l.112-.345.112.345h.362l-.293.213.112.344-.293-.213-.293.213.112-.344Zm-.057,2.63-.293.213.112.344-.293-.213-.293.213.112-.345-.293-.213h.362l.112-.344.112.344Zm-.14,2.255-.293-.213-.293.213.112-.344-.293-.213h.362l.112-.345.112.345h.362l-.293.213Zm-1.9-2.255-.293.213.112.344-.293-.213-.293.213.112-.344-.293-.213h.362l.112-.344.112.344Zm-.14,2.255-.293-.213-.293.213.112-.344-.293-.213h.362l.112-.345.112.345h.362l-.293.213Zm-.8-3.943h.362l.112-.345.112.345h.362l-.293.213.112.344-.293-.213-.293.213.112-.344Zm1.786,1.431-.293-.212-.293.212.112-.344-.293-.212h.362l.112-.345.112.345h.362l-.293.213Zm-2.332-.9.112.345h.362l-.293.213.112.344-.293-.213-.293.213.112-.344-.293-.213h.362Zm4.371.9-.293-.213-.293.213.112-.344-.293-.213H129l.112-.345.112.345h.362l-.293.213Zm-1.019-.874-.293-.213-.293.213.112-.344-.293-.213h.362l.112-.345.112.345h.362l-.293.213Zm-4.845-.557h.362l.112-.345.112.345h.362l-.293.213.112.344-.293-.213-.293.213.112-.344Zm-.546.529.112.345h.362l-.293.213.112.344-.293-.212-.293.212.112-.344-.293-.212h.362Zm1.008.815.112.344h.362l-.293.213.112.345-.293-.213-.293.213.112-.344-.293-.213h.362Zm.334,2.6-.293-.213-.293.213.112-.344-.293-.213h.362l.112-.345.112.345h.362l-.293.213Zm.505-1.168-.293-.213h.362l.112-.344.112.344h.362l-.293.213.112.344-.293-.213-.293.213Zm2.039,0-.293-.213h.362l.112-.344.112.344h.362l-.293.213.112.344-.293-.213-.293.213Zm2.039,0-.293-.213h.362l.112-.344.112.344h.362l-.293.213.112.344-.293-.213-.293.213Zm1.534,1.168-.293-.213-.293.213.112-.344-.293-.213h.362l.112-.345.112.345h.362l-.293.213Zm.14-2.255-.293.213.112.344-.293-.213-.293.213.112-.345-.293-.213h.362l.112-.344.112.344Zm.849-.258-.293-.213-.293.213.112-.344-.293-.213h.362l.112-.345.112.345h.362l-.293.213Zm-1.02-.874-.293-.213-.293.213.112-.344-.293-.213h.362l.112-.345.112.345h.362l-.293.213Zm.995-.941-.293-.213-.293.213.112-.344-.293-.213h.362l.112-.345.112.345h.362l-.293.213Zm-.293-2.649.112.344h.362l-.293.213.112.344-.293-.213-.293.213.112-.344-.293-.213h.362Zm-.908,1.218h.362l-.293.213.112.344-.293-.213-.293.213.112-.344-.293-.213h.362l.112-.344Zm-1.131-1.218.112.344h.362l-.293.213.112.344-.293-.213-.293.213.112-.344-.293-.213h.362Zm-.908,1.218h.362l-.293.213.112.344-.293-.213-.293.213.112-.344-.293-.213h.362l.112-.344Zm-1.131-1.218.112.344h.362l-.293.213.112.344-.293-.213-.293.213.112-.344-.293-.213h.362Zm-.908,1.218h.362l-.293.213.112.344-.293-.213-.293.213.112-.344-.293-.213h.362l.112-.344Zm-1.131-1.218.112.344h.363l-.293.213.112.344-.293-.213-.293.213.112-.344-.293-.213h.362Zm-.908,1.218h.362l-.293.213.112.344-.293-.213-.293.213.112-.344-.293-.213h.362l.112-.344Zm-1.131-1.218.112.344h.362l-.293.213.112.344-.293-.213-.293.213.112-.344-.293-.213h.362Zm-1.019.874.112.344h.362l-.293.213.112.344-.293-.213-.293.213.112-.344-.293-.213h.362Zm-1.494,1.218h.362l.112-.345.112.345h.362l-.293.213.112.344-.293-.213-.293.213.112-.344Zm1.044.941h.362l.112-.345.112.345h.362l-.293.213.112.344-.293-.213-.293.213.112-.344Zm-.252,1.431-.293-.213-.293.213.112-.344-.293-.213h.362l.112-.345.112.345h.362l-.293.213Zm.716-.087.112.344h.362l-.293.213.112.345-.293-.213-.293.213.112-.344-.293-.213h.362Zm-1.494,1.218h.362l.112-.344.112.344h.362l-.293.213.112.344-.293-.213-.293.213.112-.344Zm.808,2.255-.293-.213-.293.213.112-.344-.293-.213h.362l.112-.344.112.344h.362l-.293.213Zm2.039,0-.293-.213-.293.213.112-.344-.293-.213h.362l.112-.344.112.344h.362l-.293.213Zm2.039,0-.293-.213-.293.213.112-.344-.293-.213h.362l.112-.344.112.344h.362l-.293.213Zm2.039,0-.293-.213-.293.213.112-.344-.293-.213h.362l.112-.344.112.344h.362l-.293.213Zm2.039,0-.293-.213-.293.213.112-.344-.293-.213h.362l.112-.344.112.344h.362l-.293.213Zm2.039,0-.293-.213-.293.213.112-.344-.293-.213h.362l.112-.344.112.344h.362l-.293.213Z" transform="translate(-120 -1716)"/></g></g><g transform="translate(120.457 1716.355)"><g transform="translate(0.033 0)"><path class="a" d="M124.209,1719.84l.293-.213.293.213-.112-.344.293-.213h-.362l-.112-.344-.112.344h-.308l-.022.024.261.189Z" transform="translate(-124.061 -1718.939)"/></g><g transform="translate(2.039 0)"><path class="a" d="M140.876,1719.84l.293-.213.293.213-.112-.344.293-.213h-.362l-.112-.344-.112.344H140.7l.293.213Z" transform="translate(-140.695 -1718.938)"/></g><g transform="translate(4.078 0)"><path class="a" d="M157.777,1719.84l.293-.213.293.213-.112-.344.293-.213h-.363l-.112-.344-.112.344H157.6l.293.213Z" transform="translate(-157.596 -1718.938)"/></g><g transform="translate(6.117 0)"><path class="a" d="M174.679,1719.84l.293-.213.293.213-.112-.344.293-.213h-.362l-.112-.344-.112.344H174.5l.293.213Z" transform="translate(-174.498 -1718.938)"/></g><g transform="translate(8.156 0)"><path class="a" d="M191.58,1719.84l.293-.213.293.213-.112-.344.293-.213h-.362l-.112-.344-.112.344H191.4l.293.213Z" transform="translate(-191.399 -1718.938)"/></g><g transform="translate(10.195 0)"><path class="a" d="M208.486,1719.84l.293-.213.293.213-.112-.344.293-.213h-.362l-.112-.344-.112.344H208.3l.293.213Z" transform="translate(-208.305 -1718.938)"/></g><g transform="translate(1.019 0.874)"><path class="a" d="M132.422,1727.084l.293-.213.293.213-.112-.344.293-.213h-.362l-.112-.344-.112.344h-.362l.293.213Z" transform="translate(-132.24 -1726.183)"/></g><g transform="translate(3.058 0.874)"><path class="a" d="M149.326,1727.084l.293-.213.293.213-.112-.344.293-.213h-.362l-.112-.344-.112.344h-.362l.293.213Z" transform="translate(-149.145 -1726.183)"/></g><g transform="translate(5.097 0.874)"><path class="a" d="M166.229,1727.084l.293-.213.293.213-.112-.344.293-.213h-.362l-.112-.344-.112.344h-.362l.293.213Z" transform="translate(-166.047 -1726.183)"/></g><g transform="translate(7.136 0.874)"><path class="a" d="M183.131,1727.084l.293-.213.293.213-.112-.344.293-.213h-.362l-.112-.344-.112.344h-.362l.293.213Z" transform="translate(-182.949 -1726.183)"/></g><g transform="translate(9.175 0.874)"><path class="a" d="M200.031,1727.084l.293-.213.293.213-.112-.344.293-.213h-.362l-.112-.344-.112.344h-.362l.293.213Z" transform="translate(-199.85 -1726.183)"/></g><g transform="translate(0 1.748)"><path class="a" d="M123.972,1734.327l.293-.213.293.213-.112-.345.293-.213h-.362l-.112-.345-.112.345h-.362l.293.213Z" transform="translate(-123.791 -1733.425)"/></g><g transform="translate(2.039 1.748)"><path class="a" d="M140.876,1734.327l.293-.213.293.213-.112-.345.293-.213h-.362l-.112-.345-.112.345H140.7l.293.213Z" transform="translate(-140.695 -1733.425)"/></g><g transform="translate(4.078 1.748)"><path class="a" d="M157.777,1734.327l.293-.213.293.213-.112-.345.293-.213h-.362l-.112-.345-.112.345H157.6l.293.213Z" transform="translate(-157.596 -1733.425)"/></g><g transform="translate(6.117 1.748)"><path class="a" d="M174.679,1734.327l.293-.213.293.213-.112-.345.293-.213h-.362l-.112-.345-.112.345H174.5l.293.213Z" transform="translate(-174.498 -1733.425)"/></g><g transform="translate(8.156 1.748)"><path class="a" d="M191.58,1734.327l.293-.213.293.213-.112-.344.293-.213h-.362l-.112-.345-.112.345H191.4l.293.213Z" transform="translate(-191.399 -1733.425)"/></g><g transform="translate(10.195 1.748)"><path class="a" d="M208.486,1734.327l.293-.213.293.213-.112-.344.293-.213h-.362l-.112-.345-.112.345H208.3l.293.213Z" transform="translate(-208.305 -1733.425)"/></g><g transform="translate(1.044 2.689)"><path class="a" d="M133.031,1741.571l-.112-.345-.112.345h-.362l.293.213-.112.344.293-.213.293.213-.112-.344.293-.213Z" transform="translate(-132.445 -1741.226)"/></g><g transform="translate(3.083 2.689)"><path class="a" d="M149.936,1741.571l-.112-.345-.112.345h-.362l.293.213-.112.344.293-.213.293.213-.112-.344.293-.213Z" transform="translate(-149.35 -1741.226)"/></g><g transform="translate(5.122 2.689)"><path class="a" d="M166.836,1741.571l-.112-.345-.112.345h-.362l.293.213-.112.344.293-.213.293.213-.112-.344.293-.213Z" transform="translate(-166.25 -1741.226)"/></g><g transform="translate(7.161 2.689)"><path class="a" d="M183.738,1741.571l-.112-.345-.112.345h-.362l.293.213-.112.344.293-.213.293.213-.112-.344.293-.213Z" transform="translate(-183.153 -1741.226)"/></g><g transform="translate(9.2 2.689)"><path class="a" d="M200.639,1741.571l-.112-.345-.112.345h-.362l.293.213-.112.344.293-.213.293.213-.112-.344.293-.213Z" transform="translate(-200.053 -1741.226)"/></g><g transform="translate(0.025 3.563)"><path class="a" d="M124.582,1748.817l-.112-.345-.112.345H124l.293.212-.112.344.293-.213.293.213-.112-.344.293-.212Z" transform="translate(-123.996 -1748.472)"/></g><g transform="translate(2.064 3.563)"><path class="a" d="M141.485,1748.817l-.112-.345-.112.345H140.9l.293.212-.112.344.293-.213.293.213-.112-.344.293-.212Z" transform="translate(-140.899 -1748.472)"/></g><g transform="translate(4.102 3.563)"><path class="a" d="M158.385,1748.817l-.112-.345-.112.345H157.8l.293.212-.112.344.293-.213.293.213-.112-.344.293-.212Z" transform="translate(-157.799 -1748.472)"/></g><g transform="translate(6.141 3.563)"><path class="a" d="M175.287,1748.817l-.112-.345-.112.345H174.7l.293.212-.112.344.293-.213.293.213-.112-.344.293-.212Z" transform="translate(-174.701 -1748.472)"/></g><g transform="translate(8.18 3.563)"><path class="a" d="M192.188,1748.817l-.112-.345-.112.345H191.6l.293.212-.112.344.293-.213.293.213-.112-.344.293-.212Z" transform="translate(-191.602 -1748.472)"/></g><g transform="translate(10.219 3.563)"><path class="a" d="M209.092,1748.817l-.112-.345-.112.345h-.362l.293.212-.112.344.293-.213.293.213-.112-.344.293-.212Z" transform="translate(-208.506 -1748.472)"/></g><g transform="translate(1.034 4.378)"><path class="a" d="M132.541,1756.128l.293-.213.293.213-.112-.345.293-.213h-.362l-.112-.344-.112.344h-.362l.293.213Z" transform="translate(-132.36 -1755.226)"/></g><g transform="translate(3.073 4.378)"><path class="a" d="M149.443,1756.128l.293-.213.293.213-.112-.345.293-.213h-.362l-.112-.344-.112.344h-.362l.293.213Z" transform="translate(-149.262 -1755.226)"/></g><g transform="translate(5.112 4.378)"><path class="a" d="M166.345,1756.128l.293-.213.293.213-.112-.344.293-.213h-.362l-.112-.344-.112.344h-.362l.293.213Z" transform="translate(-166.164 -1755.226)"/></g><g transform="translate(7.151 4.378)"><path class="a" d="M183.248,1756.128l.293-.213.293.213-.112-.344.293-.213h-.362l-.112-.344-.112.344h-.362l.293.213Z" transform="translate(-183.067 -1755.226)"/></g><g transform="translate(9.189 4.378)"><path class="a" d="M200.148,1756.128l.293-.213.293.213-.112-.344.293-.213h-.362l-.112-.344-.112.344h-.362l.293.213Z" transform="translate(-199.967 -1755.226)"/></g><g transform="translate(0.014 5.251)"><path class="a" d="M124.09,1763.371l.293-.213.293.213-.112-.344.293-.213h-.362l-.112-.344-.112.344h-.362l.293.213Z" transform="translate(-123.908 -1762.47)"/></g><g transform="translate(2.053 5.251)"><path class="a" d="M140.992,1763.371l.293-.213.293.213-.112-.344.293-.213H141.4l-.112-.344-.112.344h-.362l.293.213Z" transform="translate(-140.811 -1762.47)"/></g><g transform="translate(4.092 5.251)"><path class="a" d="M157.893,1763.371l.293-.213.293.213-.112-.344.293-.213H158.3l-.112-.344-.112.344h-.362l.293.213Z" transform="translate(-157.711 -1762.47)"/></g><g transform="translate(6.131 5.251)"><path class="a" d="M174.794,1763.371l.293-.213.293.213-.112-.344.293-.213H175.2l-.112-.344-.112.344h-.362l.293.213Z" transform="translate(-174.613 -1762.47)"/></g><g transform="translate(8.17 5.251)"><path class="a" d="M191.7,1763.371l.293-.213.293.213-.112-.344.293-.213H192.1l-.112-.344-.112.344h-.362l.293.213Z" transform="translate(-191.516 -1762.47)"/></g><g transform="translate(10.209 5.251)"><path class="a" d="M208.6,1763.371l.293-.213.293.213-.112-.344.293-.213h-.362l-.112-.344-.112.344h-.362l.293.213Z" transform="translate(-208.42 -1762.47)"/></g><g transform="translate(1.074 6.075)"><path class="a" d="M133.281,1769.641l-.112-.345-.112.345H132.7l.293.213-.112.344.293-.213.293.213-.112-.345.293-.213Z" transform="translate(-132.695 -1769.297)"/></g><g transform="translate(3.113 6.075)"><path class="a" d="M150.182,1769.641l-.112-.345-.112.345H149.6l.293.213-.112.344.293-.213.293.213-.112-.344.293-.213Z" transform="translate(-149.596 -1769.297)"/></g><g transform="translate(5.152 6.075)"><path class="a" d="M167.086,1769.641l-.112-.345-.112.345H166.5l.293.213-.112.345.293-.213.293.213-.112-.344.293-.213Z" transform="translate(-166.5 -1769.297)"/></g><g transform="translate(7.191 6.075)"><path class="a" d="M183.987,1769.641l-.112-.345-.112.345H183.4l.293.213-.112.345.293-.213.293.213-.112-.344.293-.213Z" transform="translate(-183.401 -1769.297)"/></g><g transform="translate(9.23 6.075)"><path class="a" d="M200.889,1769.641l-.112-.345-.112.345H200.3l.293.213-.112.344.293-.213.293.213-.112-.345.293-.213Z" transform="translate(-200.303 -1769.297)"/></g><g transform="translate(0.055 6.949)"><path class="a" d="M124.83,1776.888l-.112-.344-.112.344h-.362l.293.213-.112.344.293-.213.293.213-.112-.344.293-.213Z" transform="translate(-124.244 -1776.544)"/></g><g transform="translate(2.094 6.949)"><path class="a" d="M141.732,1776.888l-.112-.344-.112.344h-.362l.293.213-.112.344.293-.213.293.213-.112-.344.293-.213Z" transform="translate(-141.147 -1776.544)"/></g><g transform="translate(4.132 6.949)"><path class="a" d="M158.633,1776.888l-.112-.344-.112.344h-.362l.293.213-.112.344.293-.213.293.213-.112-.344.293-.213Z" transform="translate(-158.047 -1776.544)"/></g><g transform="translate(6.171 6.949)"><path class="a" d="M175.535,1776.888l-.112-.344-.112.344h-.362l.293.213-.112.344.293-.213.293.213-.112-.344.293-.213Z" transform="translate(-174.949 -1776.544)"/></g><g transform="translate(8.211 6.949)"><path class="a" d="M192.439,1776.888l-.112-.344-.112.344h-.362l.293.213-.112.344.293-.213.293.213-.112-.344.293-.213Z" transform="translate(-191.854 -1776.544)"/></g><g transform="translate(10.249 6.949)"><path class="a" d="M209.7,1776.888h-.362l-.112-.344-.112.344h-.362l.293.213-.112.344.293-.213.293.213-.112-.344Z" transform="translate(-208.754 -1776.544)"/></g></g></g></svg>