<svg id="Group_105" data-name="Group 105" xmlns="http://www.w3.org/2000/svg" xmlns:xlink="http://www.w3.org/1999/xlink" width="352" height="220" viewBox="0 0 352 220">
  <defs>
    <clipPath id="clip-path">
      <rect id="Rectangle_486" data-name="Rectangle 486" width="352" height="220" rx="20" transform="translate(0 168.638)" fill="#f0edde"/>
    </clipPath>
  </defs>
  <path id="Path_274" data-name="Path 274" d="M20,0H332a20,20,0,0,1,20,20V200a20,20,0,0,1-20,20H20A20,20,0,0,1,0,200V20A20,20,0,0,1,20,0Z" fill="#f0edde"/>
  <g id="Mask_Group_2" data-name="Mask Group 2" transform="translate(0 -168.638)" clip-path="url(#clip-path)">
    <path id="Path_275" data-name="Path 275" d="M219.142,351.431H122.5c-40.669,0-75.943,24.83-75.943,78.461v27.356c0,53.63,35.274,78.461,75.943,78.461h96.647c40.673,0,75.951-24.831,75.951-78.461V429.892C295.093,376.262,259.815,351.431,219.142,351.431ZM262.7,451.489c0,32.392-12.957,53.266-53.986,53.266H132.931c-41.029,0-53.989-20.874-53.989-53.266V435.651c0-32.392,12.961-53.266,53.989-53.266h75.781c41.029,0,53.986,20.874,53.986,53.266Z" transform="matrix(0.809, 0.588, -0.588, 0.809, 401.981, -311.677)" fill="#3cf7ca" opacity="0.999"/>
    <path id="Path_276" data-name="Path 276" d="M219.142,351.431H122.5c-40.669,0-75.943,24.83-75.943,78.461v27.356c0,53.63,35.274,78.461,75.943,78.461h96.647c40.673,0,75.951-24.831,75.951-78.461V429.892C295.093,376.262,259.815,351.431,219.142,351.431ZM262.7,451.489c0,32.392-12.957,53.266-53.986,53.266H132.931c-41.029,0-53.989-20.874-53.989-53.266V435.651c0-32.392,12.961-53.266,53.989-53.266h75.781c41.029,0,53.986,20.874,53.986,53.266Z" transform="matrix(0.259, 0.966, -0.966, 0.259, 510.617, 112.673)" fill="#3cf7ca" opacity="0.999"/>
  </g>
</svg>
