<svg xmlns="http://www.w3.org/2000/svg" viewBox="0 0 374.09 263.6"><defs><style>.cls-1{fill:#f0edde;}.cls-2{fill:#ffc6b2;}.cls-3,.cls-8{fill:#7c1869;}.cls-3,.cls-5,.cls-6,.cls-7,.cls-8{stroke:#7c1869;}.cls-3,.cls-5,.cls-6,.cls-8{stroke-linejoin:round;}.cls-4{fill:#fff;}.cls-5,.cls-6,.cls-7{fill:none;}.cls-5,.cls-7,.cls-8{stroke-linecap:round;}.cls-7{stroke-miterlimit:10;}</style></defs><g id="Layer_2" data-name="Layer 2"><g id="Layer_1-2" data-name="Layer 1"><path class="cls-1" d="M168.88,167.42a30,30,0,0,1,38,0l5.44,4.45,96.06-78.61L200.54,5a20,20,0,0,0-25.33,0L67.38,93.26l96.06,78.61Z"/><path class="cls-1" d="M168.88,167.42,68.35,249.68a3,3,0,0,0,2,.8h235a3,3,0,0,0,2-.8L206.88,167.42A30,30,0,0,0,168.88,167.42Z"/><path class="cls-2" d="M214.32,174.87l-5.44-4.45a30,30,0,0,0-38,0l-5.44,4.45L69.38,96.26V250.48a3,3,0,0,0,3,3h235a3,3,0,0,0,3-3V96.26Z"/><polygon class="cls-3" points="68.35 249.68 161.22 170.05 163.44 171.87 68.35 249.68"/><polygon class="cls-4" points="161.22 173.69 163.44 171.87 67.38 93.27 67.38 96.9 161.22 173.69"/><path class="cls-4" d="M173.21,7a20,20,0,0,1,25.33,0L303.93,93.26h4.45L200.54,5a20,20,0,0,0-25.33,0Z"/><path class="cls-1" d="M317.13,163.86a17.5,17.5,0,0,0-8.75-7.7h0v2.61a15.57,15.57,0,0,1,7.66,5.7,16.64,16.64,0,0,1,3,10.88A17.42,17.42,0,0,0,317.13,163.86Z"/><path class="cls-1" d="M354.73,184.32a59.9,59.9,0,0,0-7.53-7.77,41.74,41.74,0,0,0-8.6-5.57l-2.32-1c-.79-.32-1.59-.63-2.4-.89a44.58,44.58,0,0,0-4.94-1.43,69.41,69.41,0,0,0-10.72-1.42,32.25,32.25,0,0,1,21.48,2.57,31.76,31.76,0,0,1,8.86,6.48A32.7,32.7,0,0,1,354.73,184.32Z"/><path class="cls-5" d="M308.38,156.16a17.44,17.44,0,0,1,10.7,19.19"/><path class="cls-5" d="M373.38,218.27a29.14,29.14,0,0,0-17.21-30.15,32.26,32.26,0,0,0-37.95-21.93"/><path class="cls-5" d="M371.5,225.59a28.92,28.92,0,0,0,1.12-3.37"/><line class="cls-6" x1="67.38" y1="93.26" x2="308.38" y2="93.26"/><path class="cls-1" d="M67.38,142.07h0a39.37,39.37,0,0,0-17.94,18.12,38,38,0,0,1,17.94-15.44Z"/><path class="cls-1" d="M8.32,193.34a40.54,40.54,0,0,1,1.54-7.4c.36-1.21.88-2.36,1.31-3.55s1.08-2.28,1.61-3.42a39.25,39.25,0,0,1,9.53-11.64,38.56,38.56,0,0,1,13.18-7.24,40.16,40.16,0,0,1,14.93-1.81A62.81,62.81,0,0,0,36.12,162a46,46,0,0,0-12.23,7.19l-1.38,1.12-1.28,1.23c-.87.8-1.65,1.69-2.47,2.56a12.35,12.35,0,0,0-1.15,1.36l-1.12,1.4c-.69,1-1.39,1.95-2.06,2.95l-.92,1.56c-.3.52-.66,1-.91,1.58-.54,1.09-1.13,2.17-1.64,3.29A64.28,64.28,0,0,0,8.32,193.34Z"/><path class="cls-5" d="M.5,194.88a25.26,25.26,0,0,1,16.89-.21"/><path class="cls-5" d="M47.58,164.73a39.31,39.31,0,0,1,19.8-22.66"/><path class="cls-5" d="M8.32,193.34a39.49,39.49,0,0,1,42.1-35.06"/><path class="cls-4" d="M166.88,169.42a30,30,0,0,1,38,0l99.05,81.06h1.45a3,3,0,0,0,2-.8L206.88,167.42a30,30,0,0,0-38,0Z"/><path class="cls-6" d="M308.38,93.26,200.54,5a20,20,0,0,0-25.33,0L67.38,93.26"/><path class="cls-4" d="M95,18.44a3,3,0,0,0-3,3v92l71.42,58.44,5.44-4.45a30,30,0,0,1,38,0l5.44,4.45,71.42-58.44v-92a3,3,0,0,0-3-3Z"/><path class="cls-4" d="M280.74,18.44H95a3,3,0,0,0-3,3H277.74a3,3,0,0,1,3,3v91.44l3-2.45v-92A3,3,0,0,0,280.74,18.44Z"/><path class="cls-5" d="M283.74,104.43v-83a3,3,0,0,0-3-3H241.28"/><line class="cls-5" x1="212.32" y1="171.87" x2="261.97" y2="131.24"/><line class="cls-5" x1="92.02" y1="57.54" x2="92.02" y2="113.43"/><path class="cls-5" d="M237.25,18.44H95a3,3,0,0,0-3,3v27"/><circle class="cls-4" cx="273.74" cy="28.44" r="15.82"/><path class="cls-5" d="M269.3,43.64a15.83,15.83,0,1,1,15.3-26.71"/><path class="cls-5" d="M289,24.07a15.85,15.85,0,0,1-15.21,20.2"/><path class="cls-5" d="M268.16,28.8,272,32.68a2,2,0,0,0,2.82,0l19.79-19.8"/><path class="cls-5" d="M185.85,57c-17.65,1.84-35.62,3.66-53,.31"/><path class="cls-7" d="M222.36,82.39c1,0,2,0,3,0,6.18,0,12.64-.53,18.17-3.55"/><path class="cls-7" d="M216.65,82.16c.81,0,1.61.09,2.42.12"/><path class="cls-7" d="M148.49,81.12c20.73-5.34,41.9-1,62.92.68"/><path class="cls-7" d="M173.31,92.65c13.57-1.51,27.11,1,40.4,3.52,9.76,1.82,23.18,5.21,31.4-2.41"/><path class="cls-7" d="M130.64,95.51c10.58,2.89,20.78.89,31.1-1"/><path class="cls-7" d="M149.61,111.48c9.51.61,18.35-.7,27.54-3.06,10.56-2.71,23.14-5.79,32.93.91"/><path class="cls-7" d="M130.62,109.17c4.75.69,9.49,1.41,14.24,1.9"/><path class="cls-6" d="M168.88,167.42,68.35,249.68a3,3,0,0,0,2,.8h235a3,3,0,0,0,2-.8L206.88,167.42A30,30,0,0,0,168.88,167.42Z"/><line class="cls-5" x1="308.38" y1="93.26" x2="265.6" y2="128.27"/><polyline class="cls-5" points="67.38 220.8 67.38 93.27 139.2 152.04"/><polyline class="cls-5" points="147.88 159.14 163.44 171.87 68.35 249.68"/><line class="cls-5" x1="142.09" y1="154.4" x2="144.12" y2="156.07"/><path class="cls-4" d="M105.19,248.51a54.06,54.06,0,0,0-39.81-20.79v29.76h80.84l-6.25-5a39.34,39.34,0,0,0-34.78-4Z"/><path class="cls-1" d="M56.25,228a54.84,54.84,0,0,1,27.16,3.85,53.28,53.28,0,0,1,12,6.95,55.82,55.82,0,0,1,9.83,9.72c-3.86-2.84-7.5-5.48-11.28-7.84-1.9-1.14-3.78-2.29-5.74-3.26-1-.53-2-1-2.92-1.5l-3-1.31a81.35,81.35,0,0,0-12.5-4.13C65.43,229.42,61,228.67,56.25,228Z"/><path class="cls-5" d="M96,253.32a39.36,39.36,0,0,1,55,9.78"/><path class="cls-5" d="M47.92,229.62a54.22,54.22,0,0,1,57.27,18.89"/><path class="cls-5" d="M42,231.66c.67-.27,1.34-.53,2-.78"/><path class="cls-5" d="M31.35,237.48a53.67,53.67,0,0,1,8-4.65"/><path class="cls-6" d="M308.38,93.26V247.48a3,3,0,0,1-3,3"/><polygon class="cls-8" points="88.87 93.26 92.02 113.43 92.02 73.1 88.87 93.26"/></g></g></svg>