<svg xmlns="http://www.w3.org/2000/svg" viewBox="0 0 618.4 87.18"><defs><style>.cls-1{isolation:isolate;}.cls-2{fill:#232a47;}.cls-3{fill:#7f28d9;}</style></defs><title>onvirtualcards-logo</title><g id="Layer_2" data-name="Layer 2"><g id="Layer_1-2" data-name="Layer 1"><g id="onvirtual.cards" class="cls-1"><g class="cls-1"><path class="cls-2" d="M119.52,69.14a15.58,15.58,0,0,1-5.88-6.8,22.81,22.81,0,0,1-1.92-9.48,22.82,22.82,0,0,1,1.92-9.44,15.65,15.65,0,0,1,5.88-6.87A17.39,17.39,0,0,1,129.24,34,17.61,17.61,0,0,1,139,36.51a15.54,15.54,0,0,1,5.88,6.83,22.9,22.9,0,0,1,1.92,9.45,22.86,22.86,0,0,1-1.92,9.44A15.7,15.7,0,0,1,139,69.1a17.38,17.38,0,0,1-9.71,2.58A17.62,17.62,0,0,1,119.52,69.14Zm15-9a14.52,14.52,0,0,0,1.72-7.42,13.93,13.93,0,0,0-1.72-7.31,6.31,6.31,0,0,0-10.57,0,14,14,0,0,0-1.72,7.28A14.32,14.32,0,0,0,124,60.14a6.18,6.18,0,0,0,10.54,0Z"/><path class="cls-2" d="M152.86,34.73h10.72V40h.55a10.37,10.37,0,0,1,3.81-4.29A11.33,11.33,0,0,1,174.36,34q7.14,0,9.89,4.5A18.93,18.93,0,0,1,187,48.53V71.06H176.28V50.39a9,9,0,0,0-1.58-5.64A5.51,5.51,0,0,0,170,42.69a5.64,5.64,0,0,0-4.87,2.17,9.08,9.08,0,0,0-1.58,5.53V71.06H152.86Z"/><path class="cls-2" d="M191.39,34.73h10l8,25.55h.41l7.76-25.55h10.1L215.91,71.06H203.07Z"/><path class="cls-2" d="M234.67,27A5.61,5.61,0,0,1,233,22.91a5.69,5.69,0,0,1,1.65-4.15,5.52,5.52,0,0,1,4.12-1.68,5.74,5.74,0,0,1,5.83,5.83A5.56,5.56,0,0,1,242.94,27a5.65,5.65,0,0,1-4.15,1.68A5.52,5.52,0,0,1,234.67,27Zm-1.17,7.73h10.64V71.06H233.5Z"/><path class="cls-2" d="M252.87,34.73h10.64v5.76h.55a8.21,8.21,0,0,1,3.26-4.08,11,11,0,0,1,6.36-1.68,11.65,11.65,0,0,1,2.19.2l-.48,9.82a11.19,11.19,0,0,0-3.64-.55c-2.88,0-5,.74-6.28,2.2s-2,3.89-2,7.28V71.06H252.87Z"/><path class="cls-2" d="M294.69,43V57.6a18.84,18.84,0,0,0,.24,3.54A2.74,2.74,0,0,0,296.31,63a7.34,7.34,0,0,0,3.67.69,13.92,13.92,0,0,0,2.68-.27v7.41a25.75,25.75,0,0,1-2.75.31c-1.37.12-2.74.17-4.12.17-3.57,0-6.21-.52-7.93-1.58a6.6,6.6,0,0,1-3.19-3.84,22.74,22.74,0,0,1-.62-5.91V43h-5.84V34.73h5.84V23h10.64V34.73h8V43Z"/><path class="cls-2" d="M342.91,71.06H332.12V65.63h-.48A10.7,10.7,0,0,1,327.93,70a10.46,10.46,0,0,1-6.18,1.79q-7.06,0-9.68-4.54a19.86,19.86,0,0,1-2.61-10.09V34.73h10.65v20.6a9.52,9.52,0,0,0,1.44,5.53A5,5,0,0,0,326,63a5.23,5.23,0,0,0,4.64-2.16,9.5,9.5,0,0,0,1.47-5.46V34.73h10.79Z"/><path class="cls-2" d="M352.15,66.56q-3.69-5.12-3.68-13.7t3.78-13.77A12.25,12.25,0,0,1,362.69,34c3.07,0,5.42.68,7.07,2a12,12,0,0,1,3.43,4.08h.55V34.73h10.79V71.06H373.74V65.22h-.55a13.09,13.09,0,0,1-3.53,4.33q-2.51,2.13-7.11,2.13A12,12,0,0,1,352.15,66.56ZM372,60a14.14,14.14,0,0,0,1.78-7.25A14,14,0,0,0,372,45.61a5.88,5.88,0,0,0-5.43-3,6,6,0,0,0-5.53,3,14.07,14.07,0,0,0-1.75,7.18A14.58,14.58,0,0,0,361.07,60a6.45,6.45,0,0,0,11,0Z"/><path class="cls-2" d="M396.45,69.62a6.91,6.91,0,0,1-3.2-4,24,24,0,0,1-.61-6l.07-40.11h10.64V57.46a20.08,20.08,0,0,0,.24,3.61A2.77,2.77,0,0,0,405,63a7.21,7.21,0,0,0,3.61.69,7.09,7.09,0,0,0,1.78-.14v7.42a53.1,53.1,0,0,1-5.9.34C400.83,71.26,398.17,70.72,396.45,69.62Z"/><path class="cls-2" d="M420,70a5.81,5.81,0,0,1-1.65-4.19A5.69,5.69,0,0,1,420,61.62a5.62,5.62,0,0,1,4.19-1.69,5.74,5.74,0,0,1,4.22,1.69,5.6,5.6,0,0,1,1.69,4.15,5.87,5.87,0,0,1-5.91,5.91A5.57,5.57,0,0,1,420,70Z"/></g><g class="cls-1"><path class="cls-3" d="M446,69a16.12,16.12,0,0,1-5.84-7,23.53,23.53,0,0,1,0-18.48A15.93,15.93,0,0,1,446,36.61,17.2,17.2,0,0,1,455.82,34q7.29,0,11.58,4.19a18.14,18.14,0,0,1,5.25,10.64H462.21a8.3,8.3,0,0,0-2-4.53A5.51,5.51,0,0,0,456,42.56a5.77,5.77,0,0,0-5.49,3,14.83,14.83,0,0,0-1.65,7.25,14.93,14.93,0,0,0,1.65,7.31,5.76,5.76,0,0,0,5.49,3,5.43,5.43,0,0,0,4.26-1.75,8.4,8.4,0,0,0,2-4.5h10.44a18.25,18.25,0,0,1-5.22,10.65q-4.26,4.19-11.61,4.19A17.06,17.06,0,0,1,446,69Z"/><path class="cls-3" d="M480.93,66.56q-3.68-5.12-3.68-13.7T481,39.09A12.27,12.27,0,0,1,491.47,34c3.07,0,5.42.68,7.07,2A12.15,12.15,0,0,1,502,40.08h.55V34.73h10.78V71.06H502.53V65.22H502a13.26,13.26,0,0,1-3.54,4.33q-2.51,2.13-7.11,2.13A12,12,0,0,1,480.93,66.56ZM500.81,60a14.15,14.15,0,0,0,1.79-7.25,14,14,0,0,0-1.79-7.18,6.48,6.48,0,0,0-10.95-.07,14,14,0,0,0-1.76,7.18A14.48,14.48,0,0,0,489.86,60a6.44,6.44,0,0,0,10.95,0Z"/><path class="cls-3" d="M521.28,34.73h10.64v5.76h.55a8.17,8.17,0,0,1,3.27-4.08,11,11,0,0,1,6.35-1.68,11.84,11.84,0,0,1,2.2.2l-.48,9.82a11.28,11.28,0,0,0-3.64-.55c-2.89,0-5,.74-6.29,2.2s-2,3.89-2,7.28V71.06H521.28Z"/><path class="cls-3" d="M550.78,66.56q-3.67-5.12-3.68-13.7t3.68-13.81A12.14,12.14,0,0,1,561.25,34q4.61,0,7.11,2a12,12,0,0,1,3.47,4.08h.55V19.48h10.78V71.06H572.38V65.22h-.55a14,14,0,0,1-3.64,4.4c-1.65,1.37-4,2.06-7,2.06A12,12,0,0,1,550.78,66.56Zm19.85-6.42a14.12,14.12,0,0,0,1.82-7.28,13.76,13.76,0,0,0-1.79-7.14,5.94,5.94,0,0,0-5.49-3,5.87,5.87,0,0,0-5.46,3A13.94,13.94,0,0,0,558,52.86a14.5,14.5,0,0,0,1.75,7.28,5.83,5.83,0,0,0,5.46,3.09A6,6,0,0,0,570.63,60.14Z"/><path class="cls-3" d="M596,70a12.57,12.57,0,0,1-5.12-4.5,10.81,10.81,0,0,1-1.75-5.87v-.48h10.37v.41a3.76,3.76,0,0,0,1.23,2.78,5.69,5.69,0,0,0,6.6.28,3,3,0,0,0,1.17-2.44,2.62,2.62,0,0,0-1.1-2.2,6.2,6.2,0,0,0-2.75-1.1L600.74,56a17.1,17.1,0,0,1-7.35-3.19c-2.24-1.68-3.36-4.25-3.36-7.73a9.75,9.75,0,0,1,3.81-8.21A15.61,15.61,0,0,1,603.63,34a17.38,17.38,0,0,1,7.69,1.58,11.71,11.71,0,0,1,4.88,4.16,9.92,9.92,0,0,1,1.65,5.46v.34H607.48V45.3a3.77,3.77,0,0,0-1-2.54,4,4,0,0,0-3.16-1.17,4.42,4.42,0,0,0-2.85.86,2.91,2.91,0,0,0-1.06,2.37c0,1.79,1.49,3,4.46,3.5l4.26,1a16.56,16.56,0,0,1,7.32,3.5,9,9,0,0,1,3,7.21,10.49,10.49,0,0,1-1.89,6.22,12,12,0,0,1-5.19,4A18.52,18.52,0,0,1,604,71.68,17.34,17.34,0,0,1,596,70Z"/></g></g><rect id="Rectangle_6" data-name="Rectangle 6" class="cls-3" x="9.25" y="33.29" width="44.64" height="44.64" transform="translate(-30.07 38.61) rotate(-45)"/><rect id="Rectangle_7" data-name="Rectangle 7" class="cls-3" x="9.25" y="9.25" width="44.64" height="44.64" transform="translate(-13.08 31.57) rotate(-45)"/></g></g></svg>