<svg xmlns="http://www.w3.org/2000/svg" width="139.871" height="140.091" viewBox="0 0 139.871 140.091"><defs><style>.a,.d,.f{fill:none;stroke:#7c1869;}.a,.d{stroke-linecap:round;}.a,.f{stroke-linejoin:round;}.b{fill:#f0edde;}.c{fill:#fff;}.d{stroke-miterlimit:10;}.e{fill:#ffc6b2;}.g{fill:#7c1869;}</style></defs><g transform="translate(-419.955 -1904.801)"><g transform="translate(420.49 1905.49)"><path class="a" d="M659.982,2107.309q1.748-2.525,3.268-5.193" transform="translate(-533.677 -1998.418)"/><path class="a" d="M421.949,2010.349a69.328,69.328,0,0,0,120.97,58.673" transform="translate(-420.49 -1955.048)"/><path class="a" d="M424.873,2002.394q-.176.641-.339,1.285" transform="translate(-422.401 -1951.288)"/><path class="a" d="M559.283,2000.242a69.32,69.32,0,0,0-128.352-52.385" transform="translate(-425.424 -1905.49)"/></g><circle class="b" cx="67.769" cy="67.769" r="67.769" transform="translate(422.077 1907.077)"/><path class="c" d="M497.6,1911.137a67.744,67.744,0,0,1,58.941,101.182,67.751,67.751,0,1,0-116.3-69.463A67.778,67.778,0,0,1,497.6,1911.137Z" transform="translate(-9.334 -1.423)"/><path class="c" d="M550.861,1961.5H481.774a5.274,5.274,0,0,0-5.274,5.274v89.346a67.617,67.617,0,0,0,79.635,0v-89.346A5.274,5.274,0,0,0,550.861,1961.5Z" transform="translate(-26.471 -26.471)"/><path class="a" d="M532.817,1961.5H481.774a5.274,5.274,0,0,0-5.274,5.274v23.863" transform="translate(-26.471 -26.471)"/><line class="a" x1="8.966" transform="translate(512.26 1935.029)"/><line class="a" y1="27.951" transform="translate(529.664 1940.303)"/><line class="a" y1="20.568" transform="translate(529.664 1970.364)"/><line class="a" y1="26.633" transform="translate(529.664 2002.798)"/><line class="d" x2="16.157" transform="translate(483.709 1941.357)"/><line class="d" x2="1.875" transform="translate(479.826 1941.357)"/><line class="a" x2="75.416" transform="translate(450.292 1947.159)"/><rect class="b" width="40.081" height="20.568" rx="3" transform="translate(457.94 1955.07)"/><circle class="e" cx="6.236" cy="6.236" r="6.236" transform="translate(521.939 1931.865)"/><rect class="b" width="50.629" height="20.568" rx="3" transform="translate(471.124 2007.017)"/><circle class="a" cx="6.236" cy="6.236" r="6.236" transform="translate(520.885 1930.81)"/><g transform="translate(439.481 1968.254)"><rect class="e" width="100.731" height="27.951" rx="3" transform="translate(1.318 1.318)"/><rect class="f" width="100.731" height="27.951" rx="3" transform="translate(0)"/><rect class="g" width="79.372" height="1.582" transform="translate(10.811 29.27)"/></g><g transform="translate(514.294 1977.996)"><line class="a" x2="7.333" y2="4.234" transform="translate(0 2.117)"/><line class="a" y1="4.234" x2="7.333" transform="translate(0 2.117)"/><line class="a" y1="8.468" transform="translate(3.667)"/></g><g transform="translate(495.551 1977.996)"><line class="a" x2="7.333" y2="4.234" transform="translate(0 2.117)"/><line class="a" y1="4.234" x2="7.333" transform="translate(0 2.117)"/><line class="a" y1="8.468" transform="translate(3.667)"/></g><g transform="translate(476.808 1977.996)"><line class="a" x2="7.333" y2="4.234" transform="translate(0 2.117)"/><line class="a" y1="4.234" x2="7.333" transform="translate(0 2.117)"/><line class="a" y1="8.468" transform="translate(3.667)"/></g><g transform="translate(458.065 1977.996)"><line class="a" x2="7.333" y2="4.234" transform="translate(0 2.117)"/><line class="a" y1="4.234" x2="7.333" transform="translate(0 2.117)"/><line class="a" y1="8.468" transform="translate(3.667)"/></g></g></svg>