<?xml version="1.0" encoding="utf-8"?>
<!-- Svg Vector Icons : http://www.onlinewebfonts.com/icon -->
<!DOCTYPE svg PUBLIC "-//W3C//DTD SVG 1.1//EN" "http://www.w3.org/Graphics/SVG/1.1/DTD/svg11.dtd">
<svg version="1.1" xmlns="http://www.w3.org/2000/svg" xmlns:xlink="http://www.w3.org/1999/xlink" x="0px" y="0px" viewBox="0 0 1000 1000" enable-background="new 0 0 1000 1000" xml:space="preserve">
<metadata> Svg Vector Icons : http://www.onlinewebfonts.com/icon </metadata>
<g><path fill="#7F28D9" d="M759.8,162C680.2,91.4,575.5,48.5,460.9,48.5C211.9,48.5,10,250.7,10,500c0,249.3,201.9,451.5,450.9,451.5c188.5,0,350-115.8,417.3-280.3l0-0.1c-6.5-27.9-31.5-38.2-48.1-19.6c0,0,6.6-16.2,0,0c-60.9,148.8-205.9,248-369.2,248C240.6,899.4,62,720.6,62,500c0-220.6,178.6-399.4,398.9-399.4c98.8,0,191.9,36.1,264.4,100.4c13.1,11.6,0,0,0,0c25.6,6.5,41-10.9,34.5-38.8L759.8,162L759.8,162z M440.7,722.7l22.9,21.9l23.9-20.8l490.5-427.6c14.5-12.6,16-34.5,3.4-49c-12.6-14.5-34.5-16-49-3.4L465.7,650.5L289,481.5c-13.9-13.3-35.8-12.8-49.1,1.1c-13.3,13.9-12.8,35.8,1.1,49.1L440.7,722.7L440.7,722.7z"/></g>
</svg>
