<svg xmlns="http://www.w3.org/2000/svg" width="180.926" height="23.048" viewBox="0 0 180.926 23.048"><defs><style>.a{fill:#6c1c5c;}</style></defs><g transform="translate(-429.676 -309.852)"><path class="a" d="M469.057,356.73c0-3.937,2.589-5.76,5.443-5.76h1.532a4.708,4.708,0,0,1,4.914,4.518h-2.483c-.29-1.4-1.189-2.246-3.2-2.246-2.88,0-3.831,1.532-3.831,3.91v1.163c0,2.378.951,3.91,3.831,3.91,2.193,0,3.065-.978,3.276-2.563H481a4.765,4.765,0,0,1-4.967,4.835H474.5c-2.854,0-5.443-1.823-5.443-5.76Z" transform="translate(75.671 -36.551)"/><path class="a" d="M529.8,361.8v2.272c-1.216,0-2.669-.026-3.2-1.374-.9,1.374-2.88,1.77-4.518,1.77-2.457,0-5.046-.951-5.046-4.174v-.291c0-2.325,1.956-3.963,5.046-3.963h4.307c-.053-1.77-.423-2.8-2.774-2.8h-1.585c-1.322,0-2.272.74-2.272,1.585h-2.378a4.2,4.2,0,0,1,4.412-3.857h2.589c2.351,0,4.386,1.295,4.386,5.231v4.624A.9.9,0,0,0,529.8,361.8Zm-3.409-1.665v-2.087h-3.54c-2.96,0-3.435,1.295-3.435,2.14,0,1.48.951,2.008,3.435,2.008C523.908,362.2,526.391,361.829,526.391,360.138Z" transform="translate(41.612 -36.551)"/><path class="a" d="M578.6,352.427V354.7h-2.562c-1.322,0-3.541,1.215-3.541,4.465v5.945h-2.378V352.427H572.5v2.351a5.462,5.462,0,0,1,4.307-2.351Z" transform="translate(3.935 -37.585)"/><path class="a" d="M617.068,335.23V352.9h-2.377V350.63a5.194,5.194,0,0,1-4.307,2.695c-3.065,0-5.575-1.823-5.575-5.76v-2.008c0-3.937,2.51-5.76,5.575-5.76a5.193,5.193,0,0,1,4.307,2.695V335.23Zm-2.377,11.622v-.582c0-3.25-2.22-4.2-3.805-4.2-2.563,0-3.7,1.532-3.7,3.91v1.163c0,2.378,1.136,3.91,3.7,3.91C612.471,351.053,614.691,350.1,614.691,346.852Z" transform="translate(-20.691 -25.378)"/><path class="a" d="M660.627,364.5c-3.752,0-5.575-1.506-6.156-4.069h2.642c.212.925,1.057,1.8,3.541,1.8,3.012,0,3.514-1.11,3.514-2.008,0-1.136-.766-1.4-4.518-1.85-3.567-.422-4.651-1.532-4.651-3.461,0-2.4,2.009-3.937,5.5-3.937,2.642,0,4.914,1.189,5.495,3.752h-2.642c-.264-.924-1.057-1.559-3.118-1.559-1.717,0-2.854.661-2.854,1.533,0,1.057.925,1.347,3.065,1.559,4.782.476,6.1,1.664,6.1,3.989C666.545,362.78,664.7,364.5,660.627,364.5Z" transform="translate(-55.943 -36.551)"/><path class="a" d="M204.191,352.427,199.7,365.109h-3.8L191.4,352.427h2.642l3.3,10.3h.9l3.3-10.3Z" transform="translate(272.762 -37.585)"/><path class="a" d="M243.118,352.427H245.5v12.682h-2.378Z" transform="translate(236.053 -37.585)"/><path class="a" d="M271.815,352.427V354.7h-2.563c-1.321,0-3.54,1.215-3.54,4.465v5.945h-2.378V352.427h2.378v2.351a5.461,5.461,0,0,1,4.306-2.351Z" transform="translate(221.702 -37.585)"/><path class="a" d="M302.117,346.185v4.756c0,2.114.661,3.382,2.774,3.382h.793v2.272h-1.558c-2.352,0-4.386-1.295-4.386-5.231V340.433h2.377v3.48h3.567v2.272Z" transform="translate(195.86 -29.071)"/><path class="a" d="M340.014,352.427v12.682H337.8v-2.087a5.64,5.64,0,0,1-4.465,2.51c-2.193,0-4.782-1.295-4.782-5.231v-7.873h2.378v7.451c0,2.378.951,3.382,3.17,3.382,1.321,0,3.54-.951,3.54-4.2v-6.632Z" transform="translate(175.411 -37.585)"/><path class="a" d="M389.6,361.8v2.272c-1.216,0-2.668-.026-3.2-1.374-.9,1.374-2.88,1.77-4.518,1.77-2.458,0-5.047-.951-5.047-4.174v-.291c0-2.325,1.955-3.963,5.047-3.963h4.306c-.053-1.77-.422-2.8-2.774-2.8h-1.585c-1.321,0-2.273.74-2.273,1.585h-2.378a4.2,4.2,0,0,1,4.412-3.857h2.59c2.351,0,4.386,1.295,4.386,5.231v4.624C388.572,361.644,389.127,361.8,389.6,361.8Zm-3.409-1.665v-2.087h-3.54c-2.959,0-3.435,1.295-3.435,2.14,0,1.48.952,2.008,3.435,2.008C383.711,362.2,386.194,361.829,386.194,360.138Z" transform="translate(141.13 -36.551)"/><path class="a" d="M429.389,335.23V352.9h-2.378V335.23Z" transform="translate(105.517 -25.378)"/><path class="a" d="M2.378,0V31.509H0V0Z" transform="translate(461.801 330.522) rotate(90)"/><path class="a" d="M129.218,356.662v7.873H126.84v-7.451c0-2.378-.951-3.382-3.171-3.382-1.321,0-3.54.951-3.54,4.2v6.632h-2.378V351.854h2.22v2.087a5.64,5.64,0,0,1,4.465-2.51C126.629,351.431,129.218,352.726,129.218,356.662Z" transform="translate(332.583 -36.878)"/><path class="a" d="M404.21,382a1.717,1.717,0,1,1,3.435,0,1.718,1.718,0,0,1-3.435,0Z" transform="translate(134.073 -55.901)"/><path class="a" d="M59.222,351.431H52.128c-2.985,0-5.575,1.823-5.575,5.76V359.2c0,3.937,2.589,5.76,5.575,5.76h7.095c2.986,0,5.575-1.823,5.575-5.76v-2.008C64.8,353.254,62.208,351.431,59.222,351.431Zm3.2,7.345c0,2.378-.951,3.91-3.963,3.91H52.894c-3.012,0-3.963-1.532-3.963-3.91v-1.163c0-2.378.951-3.91,3.963-3.91h5.563c3.012,0,3.963,1.532,3.963,3.91Z" transform="translate(383.123 -36.878)"/></g></svg>
