<?xml version="1.0" standalone="no"?>
<!DOCTYPE svg PUBLIC "-//W3C//DTD SVG 20010904//EN"
 "http://www.w3.org/TR/2001/REC-SVG-20010904/DTD/svg10.dtd">
<svg version="1.0" xmlns="http://www.w3.org/2000/svg"
 width="295.000000pt" height="295.000000pt" viewBox="0 0 295.000000 295.000000"
 preserveAspectRatio="xMidYMid meet">
<metadata>
Created by potrace 1.11, written by Peter Selinger 2001-2013
</metadata>
<g transform="translate(0.000000,295.000000) scale(0.100000,-0.100000)"
fill="#000000" stroke="none">
<path d="M663 2049 c-79 -25 -160 -97 -194 -171 -22 -50 -24 -65 -24 -233 0
-177 0 -181 28 -237 35 -72 110 -141 180 -165 46 -16 88 -18 357 -18 269 0
311 2 357 18 70 25 145 93 180 165 25 53 27 68 31 209 4 135 2 161 -18 224
-18 61 -30 81 -79 130 -48 47 -69 61 -125 78 -63 19 -91 21 -350 20 -250 0
-288 -2 -343 -20z m648 -142 c47 -21 95 -77 108 -124 14 -49 14 -227 0 -276
-14 -52 -61 -102 -117 -124 -41 -16 -79 -18 -292 -18 -276 0 -313 7 -369 70
-41 47 -51 91 -51 218 0 118 12 162 58 211 56 58 98 65 387 62 197 -2 246 -5
276 -19z"/>
<path d="M2069 2056 c-72 -28 -119 -57 -159 -98 l-40 -42 0 62 0 62 -70 0 -70
0 0 -395 0 -395 74 0 74 0 4 248 c4 276 8 295 76 365 52 53 124 75 199 59 73
-15 100 -34 124 -85 17 -38 19 -69 19 -314 l0 -273 75 0 75 0 0 283 c0 316 -6
353 -63 429 -65 85 -221 131 -318 94z"/>
<path d="M480 995 l0 -75 985 0 985 0 0 75 0 75 -985 0 -985 0 0 -75z"/>
</g>
</svg>
