<svg xmlns="http://www.w3.org/2000/svg" xmlns:xlink="http://www.w3.org/1999/xlink" width="352.123" height="220" viewBox="0 0 352.123 220"><defs><clipPath id="a"><rect width="352" height="220" rx="20" transform="translate(0 168.638)" fill="#f0edde"/></clipPath></defs><g transform="translate(0 0)"><path d="M352,0c.278-.2,0,220,0,220H0S0,211.046,0,0Z" fill="#f0edde"/><g transform="translate(0 -168.638)" clip-path="url(#a)"><path d="M219.142,351.431H122.5c-40.669,0-75.943,24.83-75.943,78.461v27.356c0,53.63,35.274,78.461,75.943,78.461h96.647c40.673,0,75.951-24.831,75.951-78.461V429.892C295.093,376.262,259.815,351.431,219.142,351.431ZM262.7,451.489c0,32.392-12.957,53.266-53.986,53.266H132.931c-41.029,0-53.989-20.874-53.989-53.266V435.651c0-32.392,12.961-53.266,53.989-53.266h75.781c41.029,0,53.986,20.874,53.986,53.266Z" transform="translate(401.981 -311.677) rotate(36.011)" fill="#3cf7ca" opacity="0.999"/><path d="M219.142,351.431H122.5c-40.669,0-75.943,24.83-75.943,78.461v27.356c0,53.63,35.274,78.461,75.943,78.461h96.647c40.673,0,75.951-24.831,75.951-78.461V429.892C295.093,376.262,259.815,351.431,219.142,351.431ZM262.7,451.489c0,32.392-12.957,53.266-53.986,53.266H132.931c-41.029,0-53.989-20.874-53.989-53.266V435.651c0-32.392,12.961-53.266,53.989-53.266h75.781c41.029,0,53.986,20.874,53.986,53.266Z" transform="translate(510.617 112.673) rotate(74.991)" fill="#3cf7ca" opacity="0.999"/></g></g></svg>