<svg xmlns="http://www.w3.org/2000/svg" width="144.163" height="144.39" viewBox="0 0 144.163 144.39"><defs><style>.a,.d,.f{fill:none;stroke:#7c1869;}.a,.d{stroke-linecap:round;}.a,.f{stroke-linejoin:round;}.b{fill:#f0edde;}.c{fill:#fff;}.d{stroke-miterlimit:10;}.e{fill:#ffc6b2;}.g{fill:#7c1869;}</style></defs><g transform="translate(-419.954 -1904.795)"><g transform="translate(420.49 1905.49)"><path class="a" d="M659.982,2107.47q1.8-2.6,3.369-5.354" transform="translate(-529.774 -1995.214)"/><path class="a" d="M421.994,2010.349A71.47,71.47,0,0,0,546.7,2070.835" transform="translate(-420.49 -1953.339)"/><path class="a" d="M424.884,2002.394q-.181.661-.35,1.324" transform="translate(-422.335 -1949.709)"/><path class="a" d="M563.25,2003.17a71.462,71.462,0,0,0-132.319-54" transform="translate(-425.254 -1905.49)"/></g><circle class="b" cx="69.863" cy="69.863" r="69.863" transform="translate(422.126 1907.126)"/><path class="c" d="M499.371,1911.219a69.837,69.837,0,0,1,60.763,104.309,69.844,69.844,0,1,0-119.894-71.61A69.872,69.872,0,0,1,499.371,1911.219Z" transform="translate(-9.012 -1.374)"/><path class="c" d="M553.159,1961.5H481.937a5.437,5.437,0,0,0-5.437,5.437v92.107a69.707,69.707,0,0,0,82.1,0v-92.107A5.437,5.437,0,0,0,553.159,1961.5Z" transform="translate(-25.558 -25.558)"/><line class="a" y2="10.517" transform="translate(450.942 2019.706)"/><line class="a" y2="1.939" transform="translate(450.942 2015.575)"/><line class="a" y2="38.336" transform="translate(450.942 1972.368)"/><path class="a" d="M534.558,1961.5H481.937a5.437,5.437,0,0,0-5.437,5.437v24.6" transform="translate(-25.558 -25.558)"/><line class="a" x1="9.243" transform="translate(515.096 1935.942)"/><line class="a" y1="28.815" transform="translate(533.038 1941.379)"/><line class="a" y1="21.204" transform="translate(533.038 1972.368)"/><line class="a" y1="27.456" transform="translate(533.038 2005.805)"/><line class="d" x2="16.657" transform="translate(485.663 1942.466)"/><line class="d" x2="1.933" transform="translate(481.66 1942.466)"/><line class="a" x2="77.747" transform="translate(451.213 1948.446)"/><rect class="b" width="41.32" height="21.204" rx="3" transform="translate(459.097 1956.602)"/><circle class="e" cx="6.428" cy="6.428" r="6.428" transform="translate(525.074 1932.68)"/><rect class="b" width="52.194" height="21.204" rx="3" transform="translate(472.689 2010.154)"/><circle class="a" cx="6.428" cy="6.428" r="6.428" transform="translate(523.987 1931.592)"/><g transform="translate(440.068 1970.194)"><rect class="e" width="103.844" height="28.815" rx="3" transform="translate(1.359 1.359)"/><rect class="f" width="103.844" height="28.815" rx="3"/><rect class="g" width="81.824" height="1.631" transform="translate(11.146 30.174)"/></g><g transform="translate(517.193 1980.237)"><line class="a" x2="7.56" y2="4.365" transform="translate(0 2.182)"/><line class="a" y1="4.365" x2="7.56" transform="translate(0 2.182)"/><line class="a" y1="8.73" transform="translate(3.78)"/></g><g transform="translate(497.871 1980.237)"><line class="a" x2="7.56" y2="4.365" transform="translate(0 2.182)"/><line class="a" y1="4.365" x2="7.56" transform="translate(0 2.182)"/><line class="a" y1="8.73" transform="translate(3.78)"/></g><g transform="translate(478.549 1980.237)"><line class="a" x2="7.56" y2="4.365" transform="translate(0 2.182)"/><line class="a" y1="4.365" x2="7.56" transform="translate(0 2.182)"/><line class="a" y1="8.73" transform="translate(3.78)"/></g><g transform="translate(459.226 1980.237)"><line class="a" x2="7.56" y2="4.365" transform="translate(0 2.182)"/><line class="a" y1="4.365" x2="7.56" transform="translate(0 2.182)"/><line class="a" y1="8.73" transform="translate(3.78)"/></g></g></svg>
