<svg xmlns="http://www.w3.org/2000/svg" width="490.696" height="198.834" viewBox="0 0 490.696 198.834"><defs><style>.a{fill:#ffc6b2;}.b{fill:#7c1869;}.c{fill:#f0edde;}</style></defs><g transform="translate(-1717.12 -234.946)"><path class="a" d="M1861.321,243.784,1844.8,260.3c-20.05,20.051-20.935,52.716-1.221,73.1a51.707,51.707,0,0,0,73.746.63l17.119-17.119a3,3,0,0,0,0-4.243l-68.884-68.884A3,3,0,0,0,1861.321,243.784Z"/><path class="b" d="M1876.776,347.175c-.151,0-.3,0-.454,0a52.337,52.337,0,0,1-52.04-53.467,1.04,1.04,0,0,1,1.02-.98,1,1,0,0,1,.98,1.02,50.338,50.338,0,0,0,50.057,51.428,50.452,50.452,0,0,0,36.283-14.851l17.119-17.119a2,2,0,0,0,0-2.829l-68.885-68.884a2.047,2.047,0,0,0-2.828,0l-16.516,16.517a51.593,51.593,0,0,0-12.393,19.8,1,1,0,0,1-1.89-.652,53.554,53.554,0,0,1,12.869-20.564l16.516-16.517a4,4,0,0,1,5.657,0l68.884,68.884a4,4,0,0,1,0,5.657l-17.119,17.119A52.315,52.315,0,0,1,1876.776,347.175Z"/><path class="b" d="M1930.448,309.668l-1.147-1.147a2.977,2.977,0,0,1-.853,2.39l-17.119,17.119a51.707,51.707,0,0,1-73.746-.63,50.759,50.759,0,0,1-4.722-5.66,50.707,50.707,0,0,0,6.722,8.66,51.707,51.707,0,0,0,73.746.63l17.119-17.119A3,3,0,0,0,1930.448,309.668Z"/><path class="c" d="M1999.959,353.684c-8.882,0-16.5-2.921-22.022-8.446-6.726-6.725-9.582-16.592-8.043-27.782,1.582-11.5,7.578-22.955,16.884-32.261,10.986-10.986,24.844-17.286,38.022-17.286,8.882,0,16.5,2.92,22.022,8.445,14.116,14.116,10.15,41.051-8.842,60.043C2026.994,347.383,2013.137,353.684,1999.959,353.684Z"/><path class="a" d="M2052.943,277.232c15.311,15.311,11.352,44.093-8.841,64.286s-48.976,24.152-64.286,8.841c33.271,33.272,81.413,39.326,96.933,23.806S2086.214,310.5,2052.943,277.232Z"/><path class="b" d="M1999.94,357.653c-9.561,0-18.369-3.123-24.832-9.587-7.587-7.586-10.854-18.583-9.2-30.963a1,1,0,0,1,1.983.265c-1.568,11.748,1.5,22.149,8.634,29.284,14.9,14.895,43.1,10.931,62.873-8.84s23.737-47.977,8.841-62.873-43.1-10.93-62.872,8.841a61.9,61.9,0,0,0-16,26.558,1,1,0,1,1-1.923-.547,63.89,63.89,0,0,1,16.513-27.425c20.552-20.551,50.025-24.516,65.7-8.841s11.709,45.149-8.841,65.7C2028.73,351.3,2013.569,357.653,1999.94,357.653Z"/><path class="b" d="M1825.9,287.651a1.165,1.165,0,0,1-.154-.011,1,1,0,0,1-.835-1.142c.211-1.359.48-2.735.8-4.089a1,1,0,0,1,1.947.458c-.306,1.3-.565,2.629-.768,3.938A1,1,0,0,1,1825.9,287.651Z"/><path class="b" d="M1996.187,313.161a1,1,0,0,1-.708-1.707l17.558-17.558a1,1,0,1,1,1.414,1.414l-17.557,17.558A1,1,0,0,1,1996.187,313.161Z"/><path class="b" d="M2011.015,327.989a1,1,0,0,1-.707-1.707l17.557-17.557a1,1,0,0,1,1.414,1.414L2011.722,327.7A1,1,0,0,1,2011.015,327.989Z"/><path class="b" d="M1886.228,266.448a1,1,0,0,1-.707-1.707l19.4-19.4a1,1,0,1,1,1.414,1.414l-19.4,19.4A1,1,0,0,1,1886.228,266.448Z"/><path class="b" d="M1905.785,286.005a1,1,0,0,1-.707-1.707l19.4-19.4a1,1,0,0,1,1.414,1.414l-19.4,19.4A1,1,0,0,1,1905.785,286.005Z"/><path class="b" d="M1746.017,432.737h0a61.149,61.149,0,0,1-12.494-1.312,75.2,75.2,0,0,1-15.817-5.253,1,1,0,0,1,.834-1.818,73.134,73.134,0,0,0,15.4,5.114,59.122,59.122,0,0,0,12.084,1.269,1,1,0,0,1,0,2Z"/><path class="b" d="M1766.168,429.268a1,1,0,0,1-.342-1.94,49.733,49.733,0,0,0,18.874-12.052c9.758-10.033,14.282-23.239,18.657-36.011.634-1.849,1.267-3.7,1.914-5.531,8-22.7,18.719-37.261,32.757-44.505a1,1,0,0,1,.918,1.778c-13.564,7-23.963,21.192-31.789,43.392-.645,1.83-1.276,3.67-1.907,5.514-4.447,12.981-9.046,26.4-19.116,36.757a51.713,51.713,0,0,1-19.624,12.538A1.007,1.007,0,0,1,1766.168,429.268Z"/><path class="b" d="M2191.355,426.036a1,1,0,0,1-.52-1.855,34.445,34.445,0,0,0,15.023-19.618,1,1,0,0,1,1.916.575,36.446,36.446,0,0,1-15.9,20.752A.994.994,0,0,1,2191.355,426.036Z"/><path class="b" d="M2162.628,433.78c-13.18,0-27.123-4.068-40.081-12.016a1,1,0,1,1,1.045-1.705c20.741,12.723,44.019,15.257,62.267,6.781a1,1,0,1,1,.842,1.814A56.924,56.924,0,0,1,2162.628,433.78Z"/><path class="b" d="M2113.75,415.337a1,1,0,0,1-.62-.215c-11.862-9.393-21.944-21.121-31.695-32.462-3.079-3.58-6.261-7.282-9.431-10.828a1,1,0,1,1,1.49-1.333c3.184,3.561,6.373,7.27,9.457,10.857,9.69,11.27,19.708,22.923,31.421,32.2a1,1,0,0,1-.622,1.784Z"/><path class="b" d="M2047.188,380.317a82.113,82.113,0,0,1-16.451-1.778c-20.426-4.2-40.182-15.027-55.629-30.473a1,1,0,0,1,1.414-1.414c15.173,15.173,34.57,25.8,54.619,29.928,17.789,3.663,33.463,1.316,40.9-6.122s9.783-23.11,6.122-40.9c-4.127-20.048-14.755-39.445-29.928-54.618a1,1,0,0,1,1.414-1.414c15.447,15.446,26.268,35.2,30.473,55.629,3.853,18.721,1.36,34.691-6.667,42.718C2067.915,377.413,2058.59,380.317,2047.188,380.317Z"/><path class="b" d="M1756.836,431.781a1,1,0,0,1-.178-1.984c1.386-.252,2.775-.556,4.126-.906a1,1,0,1,1,.5,1.936c-1.4.362-2.837.678-4.27.938A1.013,1.013,0,0,1,1756.836,431.781Z"/><path class="b" d="M2012.379,254.236a1,1,0,0,1-1-1v-17.29a1,1,0,0,1,2,0v17.29A1,1,0,0,1,2012.379,254.236Z"/><path class="b" d="M2051.779,243.551a1,1,0,0,1-.865-1.5l.955-1.654a1,1,0,0,1,1.733,1l-.956,1.654A1,1,0,0,1,2051.779,243.551Z"/><path class="b" d="M2044.179,256.715a1,1,0,0,1-.866-1.5l4.894-8.475a1,1,0,1,1,1.732,1l-4.893,8.475A1,1,0,0,1,2044.179,256.715Z"/><path class="b" d="M2067.453,280a1,1,0,0,1-.5-1.866l10.576-6.107a1,1,0,1,1,1,1.733l-10.576,6.106A.992.992,0,0,1,2067.453,280Z"/><path class="b" d="M1985.956,266.027a1,1,0,0,1-.867-.5l-6.808-11.791a1,1,0,0,1,1.733-1l6.807,11.791a1,1,0,0,1-.865,1.5Z"/></g></svg>